<?xml version="1.0" encoding="UTF-8" standalone="no"?>
<!-- Created with Inkscape (http://www.inkscape.org/) -->

<svg
   version="1.1"
   id="svg1"
   
   
   viewBox="18.57 -24.84 359.55 359.55"
   sodipodi:docname="LOGO MICERT.ai"
   xmlns:inkscape="http://www.inkscape.org/namespaces/inkscape"
   xmlns:sodipodi="http://sodipodi.sourceforge.net/DTD/sodipodi-0.dtd"
   xmlns:xlink="http://www.w3.org/1999/xlink"
   xmlns="http://www.w3.org/2000/svg"
   xmlns:svg="http://www.w3.org/2000/svg">
  
  <sodipodi:namedview
     id="namedview1"
     pagecolor="#ffffff"
     bordercolor="#000000"
     borderopacity="0.25"
     inkscape:showpageshadow="2"
     inkscape:pageopacity="0.0"
     inkscape:pagecheckerboard="0"
     inkscape:deskcolor="#d1d1d1">
    <inkscape:page
       x="0"
       y="0"
       inkscape:label="1"
       id="page1"
       width="1029.0187"
       height="291.84799"
       margin="30.617867 41.093334 49.058666"
       bleed="0" />
  </sodipodi:namedview>
  <g
     id="layer-MC0"
     inkscape:groupmode="layer"
     inkscape:label="Capa 1">
    <path
       id="path1"
       d="m 0,0 c -6.091,0 -11.683,2.526 -15.745,7.113 -9.915,11.197 -8.072,30.633 -3.656,66.879 0.856,7.022 1.969,16.163 2.722,24.694 -5.287,-8.067 -10.91,-17.146 -15.466,-24.5 C -60.169,28.938 -74.454,7.188 -92.799,7.188 c -15.733,0 -26.303,17.662 -26.303,43.948 v 50.935 h 33 v -50.36 c 8.345,11.503 18.699,28.22 25.903,39.851 25.737,41.554 36.814,58.417 52.66,58.417 6.478,0 12.419,-2.68 16.729,-7.547 10.891,-12.298 8.8,-34.409 4.167,-72.431 -0.677,-5.559 -1.535,-12.595 -2.215,-19.435 0.212,0.339 0.426,0.685 0.642,1.037 7.151,11.606 14.845,26.263 22.287,40.438 23.786,45.308 36.053,67.087 54.808,67.087 9.333,0 15.33,-4.085 18.718,-7.512 10.104,-10.222 9.922,-25.965 9.646,-49.794 -0.05,-4.28 -0.101,-8.706 -0.101,-13.435 V 16.5 h -33 v 71.887 c 0,4.92 0.052,9.443 0.103,13.817 0.047,4.057 0.098,8.486 0.066,12.618 C 77.584,103.931 69.436,88.41 63.289,76.701 37.572,27.715 21.953,0 0,0"
       style="fill:#0b5bf2;fill-opacity:1;fill-rule:nonzero;stroke:none"
       transform="matrix(1.3333333,0,0,-1.3333333,199.896,261.23013)"
       clip-path="url(#clipPath2)" />
    <path
       id="path3"
       d="M 0,0 H 22.295 L 53.188,-75.338 84.082,0 h 22.149 V -102.005 H 88.162 V -34.39 L 60.475,-102.005 H 45.902 L 18.07,-34.39 v -67.615 H 0 Z"
       style="fill:#262626;fill-opacity:1;fill-rule:nonzero;stroke:none"
       transform="matrix(1.3333333,0,0,-1.3333333,413.1844,85.030933)"
       clip-path="url(#clipPath4)" />
    <path
       id="path5"
       d="m 433.902,126.551 h 17.924 V 53.108 h -17.924 z m 18.507,11.512 h -19.235 v 19.964 h 19.235 z"
       style="fill:#262626;fill-opacity:1;fill-rule:nonzero;stroke:none"
       transform="matrix(1.3333333,0,0,-1.3333333,0,291.848)"
       clip-path="url(#clipPath6)" />
    <path
       id="path7"
       d="m 0,0 c 0,34.682 23.898,52.168 50.565,52.168 24.627,0 43.28,-14.426 46.048,-35.556 H 76.504 C 75.047,27.833 64.263,35.556 50.565,35.556 32.787,35.556 19.381,23.17 19.381,0 c 0,-23.169 13.406,-35.411 31.184,-35.411 13.99,0 24.773,7.724 26.522,18.798 H 96.321 C 94.281,-37.742 75.629,-52.168 50.565,-52.168 23.461,-52.168 0,-34.682 0,0"
       style="fill:#262626;fill-opacity:1;fill-rule:nonzero;stroke:none"
       transform="matrix(1.3333333,0,0,-1.3333333,620.11613,153.03413)"
       clip-path="url(#clipPath8)" />
    <path
       id="path9"
       d="M 0,0 H 36.139 C 35.41,9.326 28.998,16.321 18.36,16.321 8.306,16.321 1.894,11.075 0,0 m 54.354,-20.401 c -2.769,-15.593 -16.467,-25.647 -34.537,-25.647 -24.044,0 -37.45,18.943 -37.45,38.178 0,19.382 11.949,37.597 35.993,37.597 24.627,0 35.703,-17.924 35.703,-35.41 0,-2.478 -0.146,-4.663 -0.292,-6.121 H -0.437 c 1.311,-11.803 8.888,-19.381 20.254,-19.381 9.181,0 15.156,3.789 17.05,10.784 z"
       style="fill:#262626;fill-opacity:1;fill-rule:nonzero;stroke:none"
       transform="matrix(1.3333333,0,0,-1.3333333,783.3296,161.1944)"
       clip-path="url(#clipPath10)" />
    <path
       id="path11"
       d="M 0,0 V -22.15 H 20.401 V -37.159 H 0 v -32.059 c 0,-7.432 3.935,-11.22 10.638,-11.22 h 9.763 V -95.593 H 8.598 c -16.03,0 -26.522,9.326 -26.522,25.646 V 0 Z m -32.787,-37.159 c -11.366,0 -15.884,-9.763 -15.884,-23.753 v -34.681 h -17.924 v 73.443 h 17.924 v -12.969 c 3.643,9.327 9.326,12.969 18.798,12.969 h 5.975 v -15.009 z"
       style="fill:#262626;fill-opacity:1;fill-rule:nonzero;stroke:none"
       transform="matrix(1.3333333,0,0,-1.3333333,960.72413,93.579733)"
       clip-path="url(#clipPath12)" />
  </g>
</svg>
